<?xml version="1.0" encoding="UTF-8" standalone="no"?>
<!DOCTYPE svg PUBLIC "-//W3C//DTD SVG 1.1//EN" "http://www.w3.org/Graphics/SVG/1.1/DTD/svg11.dtd">
<svg width="100%" height="100%" viewBox="0 0 4678 3308" version="1.1" xmlns="http://www.w3.org/2000/svg" xmlns:xlink="http://www.w3.org/1999/xlink" xml:space="preserve" xmlns:serif="http://www.serif.com/" style="fill-rule:evenodd;clip-rule:evenodd;stroke-linecap:round;stroke-linejoin:round;stroke-miterlimit:1.5;">
    <g transform="matrix(1.33333,0,0,1.33333,0,0)">
        <g transform="matrix(1,0,0,1,10.4038,-35.0231)">
            <rect x="-121.941" y="-91.205" width="3672.77" height="2684.55" style="fill:rgb(235,235,235);"/>
        </g>
        <g transform="matrix(1,0,0,1,155.26,94.0295)">
            <text x="2728.52px" y="1037.86px" style="font-family:'HelveticaNeue-Light', 'Helvetica Neue';font-weight:300;font-size:66.667px;fill:white;">Adobe</text>
            <text x="2670.59px" y="1106.46px" style="font-family:'HelveticaNeue-Light', 'Helvetica Neue';font-weight:300;font-size:66.667px;fill:white;">InDesign</text>
        </g>
        <g transform="matrix(1.01129,0,0,1.00855,-2203.79,-401.403)">
            <rect x="2587.28" y="959.994" width="332.773" height="333.007" style="fill:rgb(9,85,89);"/>
        </g>
        <g transform="matrix(1.01129,0,0,1.0045,-2203.8,607.071)">
            <rect x="2587.28" y="959.994" width="332.773" height="333.007" style="fill:rgb(9,85,89);"/>
        </g>
        <g transform="matrix(0.630588,0,0,0.630588,2552.9,673.856)">
            <path d="M326.115,578.541C340.911,559.64 363.935,547.484 389.777,547.484C434.374,547.484 470.581,583.691 470.581,628.288C470.581,672.885 434.374,709.093 389.777,709.093C364.381,709.093 341.705,697.351 326.887,679.005" style="fill:rgb(128,13,46);"/>
        </g>
        <g transform="matrix(1.00917,0,0,1.0044,153.514,-55.6731)">
            <rect x="1916.41" y="958.441" width="665.916" height="667.161" style="fill:rgb(128,13,46);"/>
        </g>
        <g transform="matrix(1.00917,0,0,1.00857,-181.396,609.523)">
            <rect x="1916.41" y="958.441" width="665.916" height="667.161" style="fill:rgb(128,13,46);"/>
        </g>
        <g transform="matrix(1.00917,0,0,1.00857,-852.715,272.713)">
            <rect x="1916.41" y="958.441" width="665.916" height="667.161" style="fill:rgb(128,13,46);"/>
        </g>
        <g>
            <g>
                <g>
                    <g transform="matrix(1.00917,0,0,1.00857,-851.694,-735.236)">
                        <rect x="1916.41" y="958.441" width="665.916" height="667.161" style="fill:rgb(128,13,46);"/>
                    </g>
                    <g transform="matrix(-0.630588,0,0,0.630588,1288.67,2.89061)">
                        <path d="M326.115,578.541C340.911,559.64 363.935,547.484 389.777,547.484C434.374,547.484 470.581,583.691 470.581,628.288C470.581,672.885 434.374,709.093 389.777,709.093C364.381,709.093 341.705,697.351 326.887,679.005" style="fill:rgb(128,13,46);stroke:black;stroke-width:6.61px;"/>
                    </g>
                    <g transform="matrix(3.86124e-17,-0.630588,0.630588,3.86124e-17,1188.44,437.988)">
                        <path d="M326.115,578.541C340.911,559.64 363.935,547.484 389.777,547.484C434.374,547.484 470.581,583.691 470.581,628.288C470.581,672.885 434.374,709.093 389.777,709.093C364.381,709.093 341.705,697.351 326.887,679.005" style="fill:rgb(128,13,46);stroke:black;stroke-width:6.61px;"/>
                    </g>
                    <g transform="matrix(0.630588,0,0,0.630588,1547.63,0.874253)">
                        <path d="M326.115,578.541C340.911,559.64 363.935,547.484 389.777,547.484C434.374,547.484 470.581,583.691 470.581,628.288C470.581,672.885 434.374,709.093 389.777,709.093C364.381,709.093 341.705,697.351 326.887,679.005" style="fill:rgb(128,13,46);stroke:black;stroke-width:6.61px;"/>
                    </g>
                    <g transform="matrix(3.86124e-17,0.630588,-0.630588,3.86124e-17,1982.74,696.696)">
                        <path d="M326.115,578.541C340.911,559.64 363.935,547.484 389.777,547.484C434.374,547.484 470.581,583.691 470.581,628.288C470.581,672.885 434.374,709.093 389.777,709.093C364.381,709.093 341.705,697.351 326.887,679.005" style="fill:rgb(128,13,46);stroke:black;stroke-width:6.61px;"/>
                    </g>
                </g>
                <g>
                    <g transform="matrix(-3.86124e-17,0.630588,0.630588,3.86124e-17,856.886,46.5159)">
                        <path d="M295.208,669.887L295.208,890.44" style="fill:none;stroke:black;stroke-width:6.61px;"/>
                    </g>
                    <g transform="matrix(-3.86124e-17,0.630588,0.630588,3.86124e-17,856.886,46.5159)">
                        <path d="M826.511,359.138L609.884,359.138" style="fill:none;stroke:black;stroke-width:6.61px;"/>
                    </g>
                    <g transform="matrix(-3.86124e-17,0.630588,0.630588,3.86124e-17,856.886,46.5159)">
                        <path d="M509.138,359.138L295.208,359.138L295.208,568.65" style="fill:none;stroke:black;stroke-width:6.61px;"/>
                    </g>
                    <g transform="matrix(-3.86124e-17,0.630588,0.630588,3.86124e-17,851.028,24.8852)">
                        <path d="M326.115,578.541C340.911,559.64 363.935,547.484 389.777,547.484C434.374,547.484 470.581,583.691 470.581,628.288C470.581,672.885 434.374,709.093 389.777,709.093C364.381,709.093 341.705,697.351 326.887,679.005" style="fill:rgb(235,235,235);"/>
                    </g>
                    <g transform="matrix(-0.717453,8.78627e-17,-7.78573e-17,-0.635753,1965.06,1132.94)">
                        <path d="M295.208,669.887L295.208,890.44" style="fill:none;stroke:black;stroke-width:6.15px;"/>
                    </g>
                    <g transform="matrix(0.630588,0,0,0.630588,1232.07,6.19967)">
                        <path d="M826.511,890.44L826.511,670.806" style="fill:none;stroke:black;stroke-width:6.61px;"/>
                    </g>
                    <g transform="matrix(0.630588,0,0,0.630588,1232.07,6.19967)">
                        <path d="M826.511,569.026L826.511,359.138L609.884,359.138" style="fill:none;stroke:black;stroke-width:6.61px;"/>
                    </g>
                    <g transform="matrix(0.630588,0,0,0.630588,1232.07,6.19967)">
                        <path d="M509.138,359.138L295.208,359.138" style="fill:none;stroke:black;stroke-width:6.61px;"/>
                    </g>
                    <g transform="matrix(0.630588,0,0,0.630588,897.24,341.256)">
                        <path d="M295.208,359.138L295.208,568.65" style="fill:none;stroke:black;stroke-width:6.61px;"/>
                    </g>
                    <g transform="matrix(-0.630588,7.72248e-17,-7.72248e-17,-0.630588,1960.74,1135.34)">
                        <path d="M326.115,578.541C340.911,559.64 363.935,547.484 389.777,547.484C434.374,547.484 470.581,583.691 470.581,628.288C470.581,672.885 434.374,709.093 389.777,709.093C364.381,709.093 341.705,697.351 326.887,679.005" style="fill:rgb(235,235,235);"/>
                    </g>
                    <g transform="matrix(0.630588,0,0,0.630588,875.609,335.397)">
                        <path d="M326.115,578.541C340.911,559.64 363.935,547.484 389.777,547.484C434.374,547.484 470.581,583.691 470.581,628.288C470.581,672.885 434.374,709.093 389.777,709.093C364.381,709.093 341.705,697.351 326.887,679.005" style="fill:rgb(235,235,235);"/>
                    </g>
                    <g transform="matrix(1,0,0,1,-1334.02,-533.88)">
                        <text x="2500.08px" y="1037.86px" style="font-family:'HelveticaNeue-Bold', 'Helvetica Neue';font-weight:700;font-size:75px;fill:white;">Social science</text>
                        <text x="2602px" y="1115.04px" style="font-family:'HelveticaNeue-Bold', 'Helvetica Neue';font-weight:700;font-size:75px;fill:white;">r<tspan x="2629.83px 2672.88px " y="1115.04px 1115.04px ">es</tspan>ear<tspan x="2827.08px 2870.13px " y="1115.04px 1115.04px ">ch</tspan></text>
                        <text x="2601.4px" y="1192.21px" style="font-family:'HelveticaNeue-Bold', 'Helvetica Neue';font-weight:700;font-size:75px;fill:white;">methods</text>
                    </g>
                    <g transform="matrix(-0.630588,7.72248e-17,-7.72248e-17,-0.630588,1958.74,1135.34)">
                        <path d="M326.115,578.541C340.911,559.64 363.935,547.484 389.777,547.484C434.374,547.484 470.581,583.691 470.581,628.288C470.581,672.885 434.374,709.093 389.777,709.093C364.381,709.093 341.705,697.351 326.887,679.005" style="fill:rgb(235,235,235);stroke:black;stroke-width:6.61px;"/>
                    </g>
                    <g transform="matrix(0.630588,0,0,0.630588,877.609,335.397)">
                        <path d="M326.115,578.541C340.911,559.64 363.935,547.484 389.777,547.484C434.374,547.484 470.581,583.691 470.581,628.288C470.581,672.885 434.374,709.093 389.777,709.093C364.381,709.093 341.705,697.351 326.887,679.005" style="fill:rgb(235,235,235);stroke:black;stroke-width:6.61px;"/>
                    </g>
                    <g transform="matrix(-3.86124e-17,0.630588,0.630588,3.86124e-17,851.028,26.8852)">
                        <path d="M326.115,578.541C340.911,559.64 363.935,547.484 389.777,547.484C434.374,547.484 470.581,583.691 470.581,628.288C470.581,672.885 434.374,709.093 389.777,709.093C364.381,709.093 341.705,697.351 326.887,679.005" style="fill:rgb(235,235,235);stroke:black;stroke-width:6.61px;"/>
                    </g>
                </g>
            </g>
            <g transform="matrix(-0.630588,7.72248e-17,-7.72248e-17,-0.630588,1939.11,1129.48)">
                <path d="M826.511,359.138L609.884,359.138" style="fill:none;stroke:black;stroke-width:6.61px;"/>
            </g>
            <g transform="matrix(-0.630588,7.72248e-17,-7.72248e-17,-0.630588,1939.11,1129.48)">
                <path d="M509.138,359.138L295.208,359.138L295.208,568.65" style="fill:none;stroke:black;stroke-width:6.61px;"/>
            </g>
            <g transform="matrix(0.630588,0,0,0.630588,897.24,341.256)">
                <path d="M295.208,669.887L295.208,890.44L509.017,890.44" style="fill:none;stroke:black;stroke-width:6.61px;"/>
            </g>
            <g transform="matrix(0.698257,0,0,0.630588,855.961,341.256)">
                <path d="M610.016,890.44L829.553,890.911" style="fill:none;stroke:black;stroke-width:6.26px;"/>
            </g>
        </g>
        <g transform="matrix(1.00917,0,0,1.00857,-1520.76,-65.9669)">
            <rect x="1916.41" y="958.441" width="665.916" height="667.161" style="fill:rgb(128,13,46);"/>
        </g>
        <g transform="matrix(1.0053,0,0,1.01771,160.048,-72.5037)">
            <rect x="2587.28" y="959.994" width="332.773" height="333.007" style="fill:rgb(9,85,89);"/>
        </g>
        <g transform="matrix(2.00677,0,0,1.01339,-3101.24,-403.485)">
            <rect x="2587.28" y="959.994" width="332.773" height="333.007" style="fill:rgb(9,85,89);"/>
        </g>
        <g transform="matrix(2.00677,0,0,1.01339,-4107.52,-70.1483)">
            <rect x="2587.28" y="959.994" width="332.773" height="333.007" style="fill:rgb(9,85,89);"/>
        </g>
        <g transform="matrix(1.01129,0,0,1.00855,-864.025,271.66)">
            <rect x="2587.28" y="959.994" width="332.773" height="333.007" style="fill:rgb(9,85,89);"/>
        </g>
        <g transform="matrix(1.01129,0,0,1.00855,-193.32,943.616)">
            <rect x="2587.28" y="959.994" width="332.773" height="333.007" style="fill:rgb(9,85,89);"/>
        </g>
        <g transform="matrix(3.86124e-17,-0.630588,0.630588,3.86124e-17,2196.88,2433.67)">
            <path d="M295.208,669.887L295.208,890.44L826.511,890.44L826.511,670.806" style="fill:none;stroke:black;stroke-width:6.61px;"/>
        </g>
        <g transform="matrix(3.86124e-17,-0.630588,0.630588,3.86124e-17,2196.88,2433.67)">
            <path d="M826.511,569.026L826.511,359.138L609.884,359.138" style="fill:none;stroke:black;stroke-width:6.61px;"/>
        </g>
        <g transform="matrix(3.86124e-17,-0.630588,0.630588,3.86124e-17,2196.88,2433.67)">
            <path d="M509.138,359.138L295.208,359.138L295.208,568.65" style="fill:none;stroke:black;stroke-width:6.61px;"/>
        </g>
        <g transform="matrix(3.86124e-17,-0.630588,0.630588,3.86124e-17,2191.03,2454.31)">
            <path d="M326.115,578.541C340.911,559.64 363.935,547.484 389.777,547.484C434.374,547.484 470.581,583.691 470.581,628.288C470.581,672.885 434.374,709.093 389.777,709.093C364.381,709.093 341.705,697.351 326.887,679.005" style="fill:rgb(235,235,235);stroke:black;stroke-width:6.61px;"/>
        </g>
        <g transform="matrix(-0.630588,-7.72248e-17,7.72248e-17,-0.630588,2629.67,2477.3)">
            <path d="M326.115,578.541C340.911,559.64 363.935,547.484 389.777,547.484C434.374,547.484 470.581,583.691 470.581,628.288C470.581,641.439 467.433,653.861 461.849,664.84C448.497,691.091 421.223,709.093 389.777,709.093C364.381,709.093 341.705,697.351 326.887,679.005" style="fill:rgb(9,85,89);"/>
        </g>
        <g transform="matrix(3.86124e-17,-0.630588,0.630588,3.86124e-17,2191.56,2118.11)">
            <path d="M326.115,578.541C340.911,559.64 363.935,547.484 389.777,547.484C434.374,547.484 470.581,583.691 470.581,628.288C470.581,672.885 434.374,709.093 389.777,709.093C364.381,709.093 341.705,697.351 326.887,679.005" style="fill:rgb(9,85,89);stroke:black;stroke-width:6.61px;"/>
        </g>
        <g transform="matrix(3.86124e-17,-0.630588,0.630588,3.86124e-17,187.251,1088.02)">
            <path d="M295.208,669.887L295.208,890.44L826.511,890.44L826.511,670.806" style="fill:none;stroke:black;stroke-width:6.61px;"/>
        </g>
        <g transform="matrix(1,0,0,1,-2245.19,798.155)">
            <text x="2683.72px" y="1037.86px" style="font-family:'HelveticaNeue-Light', 'Helvetica Neue';font-weight:300;font-size:66.667px;fill:white;">Mapbox</text>
        </g>
        <g transform="matrix(3.86124e-17,-0.630588,0.630588,3.86124e-17,187.251,1088.02)">
            <path d="M826.511,569.026L826.511,359.138L609.884,359.138" style="fill:none;stroke:black;stroke-width:6.61px;"/>
        </g>
        <g transform="matrix(3.86124e-17,-0.630588,0.630588,3.86124e-17,187.251,1088.02)">
            <path d="M509.138,359.138L295.208,359.138L295.208,568.65" style="fill:none;stroke:black;stroke-width:6.61px;"/>
        </g>
        <g transform="matrix(3.86124e-17,-0.630588,0.630588,3.86124e-17,181.393,1107.65)">
            <path d="M326.115,578.541C340.911,559.64 363.935,547.484 389.777,547.484C434.374,547.484 470.581,583.691 470.581,628.288C470.581,672.885 434.374,709.093 389.777,709.093C364.381,709.093 341.705,697.351 326.887,679.005" style="fill:none;stroke:black;stroke-width:6.61px;"/>
        </g>
        <g transform="matrix(-0.630588,-7.72248e-17,7.72248e-17,-0.630588,619.039,1131.64)">
            <path d="M326.115,578.541C340.911,559.64 363.935,547.484 389.777,547.484C434.374,547.484 470.581,583.691 470.581,628.288C470.581,672.885 434.374,709.093 389.777,709.093C364.381,709.093 341.705,697.351 326.887,679.005" style="fill:rgb(9,85,89);stroke:black;stroke-width:6.61px;"/>
        </g>
        <g transform="matrix(3.88122e-17,-0.633851,0.630588,3.86124e-17,181.926,773.983)">
            <path d="M326.115,578.541C340.911,559.64 363.935,547.484 389.777,547.484C434.374,547.484 470.581,583.691 470.581,628.288C470.581,672.885 434.374,709.093 389.777,709.093C364.381,709.093 340.959,697.138 326.141,678.793" style="fill:rgb(9,85,89);stroke:black;stroke-width:6.59px;"/>
        </g>
        <g transform="matrix(0.630588,0,0,0.630588,2573.43,680.073)">
            <path d="M295.208,669.887L295.208,890.44L515.937,890.44" style="fill:none;stroke:black;stroke-width:6.61px;"/>
        </g>
        <g transform="matrix(0.630588,0,0,0.630588,2573.43,680.073)">
            <path d="M617.865,890.44L826.511,890.44L826.511,670.806" style="fill:none;stroke:black;stroke-width:6.61px;"/>
        </g>
        <g transform="matrix(0.630588,0,0,0.630588,2573.43,680.073)">
            <path d="M826.511,569.026L826.511,359.138L609.884,359.138" style="fill:none;stroke:black;stroke-width:6.61px;"/>
        </g>
        <g transform="matrix(0.630588,0,0,0.630588,2573.43,680.073)">
            <path d="M509.138,359.138L295.208,359.138L295.208,568.65" style="fill:none;stroke:black;stroke-width:6.61px;"/>
        </g>
        <g transform="matrix(0.630588,0,0,0.630588,2553.8,674.214)">
            <path d="M326.115,578.541C340.911,559.64 363.935,547.484 389.777,547.484C434.374,547.484 470.581,583.691 470.581,628.288C470.581,672.885 434.374,709.093 389.777,709.093C364.381,709.093 341.705,697.351 326.887,679.005" style="fill:none;stroke:black;stroke-width:6.61px;"/>
        </g>
        <g transform="matrix(3.86124e-17,-0.630588,0.630588,3.86124e-17,2529.8,1111.86)">
            <path d="M326.115,578.541C340.911,559.64 363.935,547.484 389.777,547.484C434.374,547.484 470.581,583.691 470.581,628.288C470.581,672.885 434.374,709.093 389.777,709.093C364.381,709.093 341.705,697.351 326.887,679.005" style="fill:rgb(9,85,89);stroke:black;stroke-width:6.61px;"/>
        </g>
        <g transform="matrix(0.630588,0,0,0.630588,2889,674.747)">
            <path d="M326.115,578.541C340.911,559.64 363.935,547.484 389.777,547.484C434.374,547.484 470.581,583.691 470.581,628.288C470.581,672.885 434.374,709.093 389.777,709.093C364.381,709.093 341.705,697.351 326.887,679.005" style="fill:rgb(9,85,89);stroke:black;stroke-width:6.61px;"/>
        </g>
        <g transform="matrix(3.86124e-17,0.630588,-0.630588,3.86124e-17,3327.23,1036.14)">
            <path d="M326.115,578.541C340.911,559.64 363.935,547.484 389.777,547.484C434.374,547.484 470.581,583.691 470.581,628.288C470.581,672.885 434.374,709.093 389.777,709.093C364.381,709.093 341.705,697.351 326.887,679.005" style="fill:rgb(9,85,89);stroke:black;stroke-width:6.61px;"/>
        </g>
        <g transform="matrix(0.630588,0,0,0.630588,1903.5,344.344)">
            <path d="M295.208,669.887L295.208,890.44L500.988,890.44" style="fill:none;stroke:black;stroke-width:6.61px;"/>
        </g>
        <g transform="matrix(0.630588,0,0,0.630588,1903.5,344.344)">
            <path d="M617.865,890.44L826.511,890.44L826.511,670.806" style="fill:none;stroke:black;stroke-width:6.61px;"/>
        </g>
        <g transform="matrix(0.630588,0,0,0.630588,1903.5,344.344)">
            <path d="M826.511,569.026L826.511,359.138L609.884,359.138" style="fill:none;stroke:black;stroke-width:6.61px;"/>
        </g>
        <g transform="matrix(0.630588,0,0,0.630588,1903.5,344.344)">
            <path d="M509.138,359.138L295.208,359.138L295.208,568.65" style="fill:none;stroke:black;stroke-width:6.61px;"/>
        </g>
        <g transform="matrix(0.630588,0,0,0.630588,1883.87,338.486)">
            <path d="M326.115,578.541C340.911,559.64 363.935,547.484 389.777,547.484C434.374,547.484 470.581,583.691 470.581,628.288C470.581,672.885 434.374,709.093 389.777,709.093C364.381,709.093 341.705,697.351 326.887,679.005" style="fill:rgb(235,235,235);stroke:black;stroke-width:6.61px;"/>
        </g>
        <g transform="matrix(3.86124e-17,-0.630588,0.630588,3.86124e-17,1859.88,776.132)">
            <path d="M326.115,578.541C340.911,559.64 363.935,547.484 389.777,547.484C434.374,547.484 470.581,583.691 470.581,628.288C470.581,672.885 434.374,709.093 389.777,709.093C364.381,709.093 341.705,697.351 326.887,679.005" style="fill:rgb(9,85,89);stroke:black;stroke-width:6.61px;"/>
        </g>
        <g transform="matrix(0.630588,0,0,0.630588,2219.07,339.019)">
            <path d="M326.115,578.541C340.911,559.64 363.935,547.484 389.777,547.484C434.374,547.484 470.581,583.691 470.581,628.288C470.581,672.885 434.374,709.093 389.777,709.093C364.381,709.093 341.705,697.351 326.887,679.005" style="fill:none;stroke:black;stroke-width:6.61px;"/>
        </g>
        <g transform="matrix(0.630588,0,0,0.630588,1566.97,1014.42)">
            <path d="M295.208,669.887L295.208,890.44L515.937,890.44" style="fill:none;stroke:black;stroke-width:6.61px;"/>
        </g>
        <g transform="matrix(0.630588,0,0,0.630588,1566.97,1014.42)">
            <path d="M617.865,890.44L826.511,890.44" style="fill:none;stroke:black;stroke-width:6.61px;"/>
        </g>
        <g transform="matrix(0.630588,0,0,0.630588,1566.97,1014.42)">
            <path d="M826.511,359.138L609.884,359.138" style="fill:none;stroke:black;stroke-width:6.61px;"/>
        </g>
        <g transform="matrix(0.630588,0,0,0.630588,1566.97,1014.42)">
            <path d="M509.138,359.138L295.208,359.138L295.208,568.65" style="fill:none;stroke:black;stroke-width:6.61px;"/>
        </g>
        <g transform="matrix(3.86124e-17,-0.630588,0.630588,3.86124e-17,1523.35,1447.21)">
            <path d="M326.115,578.541C340.911,559.64 363.935,547.484 389.777,547.484C434.374,547.484 470.581,583.691 470.581,628.288C470.581,672.885 434.374,709.093 389.777,709.093C364.381,709.093 341.705,697.351 326.887,679.005" style="fill:rgb(9,85,89);stroke:black;stroke-width:6.61px;"/>
        </g>
        <g transform="matrix(3.86124e-17,0.630588,-0.630588,3.86124e-17,2320.77,1368.49)">
            <path d="M326.115,578.541C340.911,559.64 363.935,547.484 389.777,547.484C434.374,547.484 470.581,583.691 470.581,628.288C470.581,672.885 434.374,709.093 389.777,709.093C364.381,709.093 341.705,697.351 326.887,679.005" style="fill:rgb(9,85,89);stroke:black;stroke-width:6.61px;"/>
        </g>
        <g transform="matrix(0.630588,0,0,0.630588,897.138,677.47)">
            <path d="M295.208,669.887L295.529,893.677L505.19,892.274" style="fill:none;stroke:black;stroke-width:6.61px;"/>
        </g>
        <g transform="matrix(0.630588,0,0,0.630588,897.138,677.47)">
            <path d="M613.166,892.757L826.511,890.44L826.511,670.806" style="fill:none;stroke:black;stroke-width:6.61px;"/>
        </g>
        <g transform="matrix(0.630588,0,0,0.630588,897.138,677.47)">
            <path d="M826.511,569.026L826.511,359.138" style="fill:none;stroke:black;stroke-width:6.61px;"/>
        </g>
        <g transform="matrix(0.630588,0,0,0.630588,1212.71,672.145)">
            <path d="M326.115,578.541C340.911,559.64 363.935,547.484 389.777,547.484C434.374,547.484 470.581,583.691 470.581,628.288C470.581,672.885 434.374,709.093 389.777,709.093C364.381,709.093 341.705,697.351 326.887,679.005" style="fill:none;stroke:black;stroke-width:6.61px;"/>
        </g>
        <g transform="matrix(0.630588,0,0,0.630588,2238.34,344.42)">
            <path d="M295.208,669.887L295.208,890.44L509.017,890.44" style="fill:none;stroke:black;stroke-width:6.61px;"/>
        </g>
        <g transform="matrix(0.630588,0,0,0.630588,2238.34,344.42)">
            <path d="M610.016,890.44L826.511,890.44L826.511,359.138L609.884,359.138" style="fill:none;stroke:black;stroke-width:6.61px;"/>
        </g>
        <g transform="matrix(0.630588,0,0,0.630588,2238.34,344.42)">
            <path d="M509.138,359.138L295.208,359.138L295.208,568.65" style="fill:none;stroke:black;stroke-width:6.61px;"/>
        </g>
        <g transform="matrix(0.630588,0,0,0.630588,2218.71,338.562)">
            <path d="M326.115,578.541C340.911,559.64 363.935,547.484 389.777,547.484C434.374,547.484 470.581,583.691 470.581,628.288C470.581,672.885 434.374,709.093 389.777,709.093C364.381,709.093 341.705,697.351 326.887,679.005" style="fill:none;stroke:black;stroke-width:6.61px;"/>
        </g>
        <g transform="matrix(3.86124e-17,-0.630588,0.630588,3.86124e-17,2194.71,776.208)">
            <path d="M326.115,578.541C340.911,559.64 363.935,547.484 389.777,547.484C434.374,547.484 470.581,583.691 470.581,628.288C470.581,672.885 434.374,709.093 389.777,709.093C364.381,709.093 341.705,697.351 326.887,679.005" style="fill:rgb(9,85,89);stroke:black;stroke-width:6.61px;"/>
        </g>
        <g transform="matrix(3.86124e-17,-0.630588,0.630588,3.86124e-17,2194.62,1111.3)">
            <path d="M326.115,578.541C340.911,559.64 363.935,547.484 389.777,547.484C434.374,547.484 470.581,583.691 470.581,628.288C470.581,672.885 434.374,709.093 389.777,709.093C364.381,709.093 341.705,697.351 326.887,679.005" style="fill:none;stroke:black;stroke-width:6.61px;"/>
        </g>
        <g transform="matrix(0.630588,0,0,0.630588,1231.44,678.074)">
            <path d="M295.208,669.887L295.208,890.44L509.017,890.44" style="fill:none;stroke:black;stroke-width:6.61px;"/>
        </g>
        <g transform="matrix(0.630588,0,0,0.630588,1231.44,678.074)">
            <path d="M618.564,890.97L826.511,890.44L826.511,359.138" style="fill:none;stroke:black;stroke-width:6.61px;"/>
        </g>
        <g transform="matrix(0.630588,0,0,0.630588,1231.44,678.074)">
            <path d="M295.208,359.138L295.208,568.65" style="fill:none;stroke:black;stroke-width:6.61px;"/>
        </g>
        <g transform="matrix(-3.86124e-17,0.630588,0.630588,3.86124e-17,1527.18,1391.04)">
            <path d="M826.511,359.138L619.845,358.209" style="fill:none;stroke:black;stroke-width:6.61px;"/>
        </g>
        <g transform="matrix(0.630588,7.72248e-17,7.72248e-17,-0.630588,1567.39,2474.12)">
            <path d="M295.208,669.887L295.208,890.44" style="fill:none;stroke:black;stroke-width:6.61px;"/>
        </g>
        <g transform="matrix(0.630588,7.72248e-17,7.72248e-17,-0.630588,1567.39,2474.12)">
            <path d="M826.511,359.138L609.884,359.138" style="fill:none;stroke:black;stroke-width:6.61px;"/>
        </g>
        <g transform="matrix(0.630588,7.72248e-17,7.72248e-17,-0.630588,1567.39,2474.12)">
            <path d="M509.138,359.138L295.208,359.138L295.208,568.65" style="fill:none;stroke:black;stroke-width:6.61px;"/>
        </g>
        <g transform="matrix(0.630588,7.72248e-17,7.72248e-17,-0.630588,1545.76,2479.97)">
            <path d="M326.115,578.541C340.911,559.64 363.935,547.484 389.777,547.484C434.374,547.484 470.581,583.691 470.581,628.288C470.581,672.885 434.374,709.093 389.777,709.093C364.381,709.093 341.705,697.351 326.887,679.005" style="fill:rgb(235,235,235);"/>
        </g>
        <g transform="matrix(-3.86124e-17,0.630588,0.630588,3.86124e-17,1523.77,2042.33)">
            <path d="M326.115,578.541C340.911,559.64 363.935,547.484 389.777,547.484C434.374,547.484 470.581,583.691 470.581,628.288C470.581,672.885 434.374,709.093 389.777,709.093C364.381,709.093 341.705,697.351 326.887,679.005" style="fill:rgb(128,13,46);stroke:black;stroke-width:6.61px;"/>
        </g>
        <g transform="matrix(-0.717453,8.78627e-17,-7.78573e-17,-0.635753,2635.35,2477.47)">
            <path d="M295.384,678.056L295.208,890.44" style="fill:none;stroke:black;stroke-width:6.15px;"/>
        </g>
        <g transform="matrix(-0.630588,7.72248e-17,-7.72248e-17,-0.630588,2609.41,2474.01)">
            <path d="M826.511,359.138L609.884,359.138" style="fill:none;stroke:black;stroke-width:6.61px;"/>
        </g>
        <g transform="matrix(-0.630588,7.72248e-17,-7.72248e-17,-0.630588,2609.41,2474.01)">
            <path d="M509.138,359.138L295.208,359.138L295.208,568.65" style="fill:none;stroke:black;stroke-width:6.61px;"/>
        </g>
        <g transform="matrix(3.86124e-17,0.630588,-0.630588,3.86124e-17,2653.03,2042.22)">
            <path d="M326.115,578.541C340.911,559.64 363.935,547.484 389.777,547.484C434.374,547.484 470.581,583.691 470.581,628.288C470.581,672.885 434.374,709.093 389.777,709.093C364.381,709.093 341.705,697.351 326.887,679.005" style="fill:rgb(128,13,46);stroke:black;stroke-width:6.61px;"/>
        </g>
        <g transform="matrix(0.630588,0,0,0.630588,1902.36,1350.72)">
            <path d="M826.511,890.44L826.511,670.806" style="fill:none;stroke:black;stroke-width:6.61px;"/>
        </g>
        <g transform="matrix(0.630588,0,0,0.630588,1902.36,1350.72)">
            <path d="M826.511,569.026L826.511,359.138" style="fill:none;stroke:black;stroke-width:6.61px;"/>
        </g>
        <g transform="matrix(0.630588,0,0,0.630588,2217.93,1345.4)">
            <path d="M326.115,578.541C340.911,559.64 363.935,547.484 389.777,547.484C434.374,547.484 470.581,583.691 470.581,628.288C470.581,672.885 434.374,709.093 389.777,709.093C364.381,709.093 341.705,697.351 326.887,679.005" style="fill:rgb(128,13,46);stroke:black;stroke-width:6.61px;"/>
        </g>
        <g transform="matrix(-3.86124e-17,0.630588,0.630588,3.86124e-17,1863.15,719.497)">
            <path d="M295.208,669.887L295.208,890.44" style="fill:none;stroke:black;stroke-width:6.61px;"/>
        </g>
        <g transform="matrix(-3.86124e-17,0.630588,0.630588,3.86124e-17,1863.15,719.497)">
            <path d="M826.511,359.138L609.884,359.138" style="fill:none;stroke:black;stroke-width:6.61px;"/>
        </g>
        <g transform="matrix(-3.86124e-17,0.630588,0.630588,3.86124e-17,1863.15,719.497)">
            <path d="M509.138,359.138L295.208,359.138L295.208,568.65" style="fill:none;stroke:black;stroke-width:6.61px;"/>
        </g>
        <g transform="matrix(-3.86124e-17,0.630588,0.630588,3.86124e-17,1857.3,699.867)">
            <path d="M326.115,578.541C340.911,559.64 363.935,547.484 389.777,547.484C434.374,547.484 470.581,583.691 470.581,628.288C470.581,672.885 434.374,709.093 389.777,709.093C364.381,709.093 341.705,697.351 326.887,679.005" style="fill:rgb(9,85,89);stroke:black;stroke-width:6.61px;"/>
        </g>
        <g transform="matrix(-0.630588,0,0,0.630588,2294.94,675.872)">
            <path d="M326.115,578.541C340.911,559.64 363.935,547.484 389.777,547.484C434.374,547.484 470.581,583.691 470.581,628.288C470.581,672.885 434.374,709.093 389.777,709.093C364.381,709.093 341.705,697.351 326.887,679.005" style="fill:rgb(128,13,46);stroke:black;stroke-width:6.61px;"/>
        </g>
        <g transform="matrix(1,0,0,1,-2200.26,-355.888)">
            <text x="2763.12px" y="1037.86px" style="font-family:'HelveticaNeue-Light', 'Helvetica Neue';font-weight:300;font-size:66.667px;fill:white;">QGIS</text>
        </g>
        <g transform="matrix(-0.717453,8.78627e-17,-7.78573e-17,-0.635753,2971.32,1805.93)">
            <path d="M295.208,669.887L295.208,890.44" style="fill:none;stroke:black;stroke-width:6.15px;"/>
        </g>
        <g transform="matrix(-0.630588,7.72248e-17,-7.72248e-17,-0.630588,2945.38,1802.47)">
            <path d="M826.511,359.138L609.884,359.138" style="fill:none;stroke:black;stroke-width:6.61px;"/>
        </g>
        <g transform="matrix(-0.630588,7.72248e-17,-7.72248e-17,-0.630588,2945.38,1802.47)">
            <path d="M509.138,359.138L295.208,359.138L295.208,568.65" style="fill:none;stroke:black;stroke-width:6.61px;"/>
        </g>
        <g transform="matrix(-0.630588,7.72248e-17,-7.72248e-17,-0.630588,2966.01,1808.32)">
            <path d="M326.115,578.541C340.911,559.64 363.935,547.484 389.777,547.484C434.374,547.484 470.581,583.691 470.581,628.288C470.581,672.885 434.374,709.093 389.777,709.093C364.381,709.093 341.705,697.351 326.887,679.005" style="fill:rgb(235,235,235);stroke:black;stroke-width:6.61px;"/>
        </g>
        <g transform="matrix(3.86124e-17,0.630588,-0.630588,3.86124e-17,2989.01,1370.68)">
            <path d="M326.115,578.541C340.911,559.64 363.935,547.484 389.777,547.484C434.374,547.484 470.581,583.691 470.581,628.288C470.581,672.885 434.374,709.093 389.777,709.093C364.381,709.093 341.705,697.351 326.887,679.005" style="fill:rgb(128,13,46);stroke:black;stroke-width:6.61px;"/>
        </g>
        <g transform="matrix(0.630588,0,0,0.630588,2238.33,679.181)">
            <path d="M826.511,890.44L826.511,670.806" style="fill:none;stroke:black;stroke-width:6.61px;"/>
        </g>
        <g transform="matrix(0.630588,0,0,0.630588,2238.33,679.181)">
            <path d="M826.511,569.026L826.511,359.138L609.884,359.138" style="fill:none;stroke:black;stroke-width:6.61px;"/>
        </g>
        <g transform="matrix(0.630588,0,0,0.630588,2238.33,679.181)">
            <path d="M509.138,359.138L295.208,359.138" style="fill:none;stroke:black;stroke-width:6.61px;"/>
        </g>
        <g transform="matrix(3.86124e-17,-0.630588,0.630588,3.86124e-17,2194.71,1110.97)">
            <path d="M326.115,578.541C340.911,559.64 363.935,547.484 389.777,547.484C434.374,547.484 470.581,583.691 470.581,628.288C470.581,672.885 434.374,709.093 389.777,709.093C364.381,709.093 341.705,697.351 326.887,679.005" style="fill:rgb(128,13,46);stroke:black;stroke-width:6.61px;"/>
        </g>
        <g transform="matrix(3.86124e-17,-0.630588,0.630588,3.86124e-17,2194.71,1113.97)">
            <path d="M326.115,578.541C340.911,559.64 363.935,547.484 389.777,547.484C434.374,547.484 470.581,583.691 470.581,628.288C470.581,672.885 434.374,709.093 389.777,709.093C364.381,709.093 341.705,697.351 326.887,679.005" style="fill:rgb(128,13,46);"/>
        </g>
        <g transform="matrix(0.630588,0,0,0.630588,2553.9,673.856)">
            <path d="M326.115,578.541C340.911,559.64 363.935,547.484 389.777,547.484C434.374,547.484 470.581,583.691 470.581,628.288C470.581,672.885 434.374,709.093 389.777,709.093C364.381,709.093 341.705,697.351 326.887,679.005" style="fill:rgb(128,13,46);stroke:black;stroke-width:6.61px;"/>
        </g>
        <g transform="matrix(0.630588,0,0,0.630588,1903.51,1014.24)">
            <path d="M295.208,669.887L295.208,890.44L509.017,890.44" style="fill:none;stroke:black;stroke-width:6.61px;"/>
        </g>
        <g transform="matrix(0.698257,0,0,0.630588,1862.23,1014.24)">
            <path d="M610.016,890.44L829.553,890.911" style="fill:none;stroke:black;stroke-width:6.26px;"/>
        </g>
        <g transform="matrix(0.630588,0,0,0.630588,1903.51,1014.24)">
            <path d="M295.208,359.138L295.208,568.65" style="fill:none;stroke:black;stroke-width:6.61px;"/>
        </g>
        <g transform="matrix(0.630588,0,0,0.630588,1881.88,1008.38)">
            <path d="M326.115,578.541C340.911,559.64 363.935,547.484 389.777,547.484C434.374,547.484 470.581,583.691 470.581,628.288C470.581,672.885 434.374,709.093 389.777,709.093C364.381,709.093 341.705,697.351 326.887,679.005" style="fill:rgb(9,85,89);"/>
        </g>
        <g transform="matrix(3.8878e-17,-0.634926,0.630588,3.86124e-17,1859.79,1783.16)">
            <path d="M326.115,578.541C340.911,559.64 363.935,547.484 389.777,547.484C434.374,547.484 470.581,583.691 470.581,628.288C470.581,672.885 434.374,709.093 389.777,709.093C364.381,709.093 341.705,697.351 326.887,679.005" style="fill:rgb(128,13,46);stroke:black;stroke-width:6.58px;"/>
        </g>
        <g transform="matrix(3.86124e-17,0.630588,-0.630588,3.86124e-17,1982.74,695.696)">
            <path d="M326.115,578.541C340.911,559.64 363.935,547.484 389.777,547.484C434.374,547.484 470.581,583.691 470.581,628.288C470.581,672.885 434.374,709.093 389.777,709.093C364.381,709.093 341.705,697.351 326.887,679.005" style="fill:rgb(128,13,46);stroke:black;stroke-width:6.61px;"/>
        </g>
        <g transform="matrix(3.86124e-17,-0.630588,0.630588,3.86124e-17,853.525,1108.14)">
            <path d="M325.254,578.541C340.05,559.64 363.935,547.484 389.777,547.484C434.374,547.484 470.581,583.691 470.581,628.288C470.581,672.885 434.374,709.093 389.777,709.093C364.381,709.093 339.506,697.467 324.688,679.121" style="fill:rgb(9,85,89);stroke:black;stroke-width:6.61px;"/>
        </g>
        <g transform="matrix(0.630588,7.72248e-17,7.72248e-17,-0.630588,227.405,1798.44)">
            <path d="M295.208,669.887L295.208,890.44" style="fill:none;stroke:black;stroke-width:6.61px;"/>
        </g>
        <g transform="matrix(0.630588,7.72248e-17,7.72248e-17,-0.630588,227.405,1798.44)">
            <path d="M826.511,359.138L609.884,359.138" style="fill:none;stroke:black;stroke-width:6.61px;"/>
        </g>
        <g transform="matrix(0.630588,7.72248e-17,7.72248e-17,-0.630588,227.405,1798.44)">
            <path d="M509.138,359.138L295.208,359.138L295.208,568.65" style="fill:none;stroke:black;stroke-width:6.61px;"/>
        </g>
        <g transform="matrix(0.630588,7.72248e-17,7.72248e-17,-0.630588,206.775,1804.29)">
            <path d="M326.115,578.541C340.911,559.64 363.935,547.484 389.777,547.484C434.374,547.484 470.581,583.691 470.581,628.288C470.581,672.885 434.374,709.093 389.777,709.093C364.381,709.093 341.705,697.351 326.887,679.005" style="fill:rgb(235,235,235);stroke:black;stroke-width:6.61px;"/>
        </g>
        <g transform="matrix(-3.86124e-17,0.630588,0.630588,3.86124e-17,183.78,1366.65)">
            <path d="M326.115,578.541C340.911,559.64 363.935,547.484 389.777,547.484C434.374,547.484 470.581,583.691 470.581,628.288C470.581,672.885 434.374,709.093 389.777,709.093C364.381,709.093 341.705,697.351 326.887,679.005" style="fill:rgb(128,13,46);stroke:black;stroke-width:6.61px;"/>
        </g>
        <g transform="matrix(4.39313e-17,0.717453,-0.635753,3.89286e-17,1313.83,690.267)">
            <path d="M295.208,669.887L295.208,890.44" style="fill:none;stroke:black;stroke-width:6.15px;"/>
        </g>
        <g transform="matrix(3.86124e-17,0.630588,-0.630588,3.86124e-17,1310.37,716.211)">
            <path d="M826.511,359.138L609.884,359.138" style="fill:none;stroke:black;stroke-width:6.61px;"/>
        </g>
        <g transform="matrix(3.86124e-17,0.630588,-0.630588,3.86124e-17,1310.37,716.211)">
            <path d="M509.138,359.138L295.208,359.138L295.208,568.65" style="fill:none;stroke:black;stroke-width:6.61px;"/>
        </g>
        <g transform="matrix(3.86124e-17,0.630588,-0.630588,3.86124e-17,1316.23,694.58)">
            <path d="M326.115,578.541C340.911,559.64 363.935,547.484 389.777,547.484C434.374,547.484 470.581,583.691 470.581,628.288C470.581,672.885 434.374,709.093 389.777,709.093C364.381,709.093 341.705,697.351 326.887,679.005" style="fill:rgb(235,235,235);"/>
        </g>
        <g transform="matrix(0.630588,-6.16298e-33,6.16298e-33,0.630588,877.586,672.585)">
            <path d="M326.996,578.699C341.792,559.798 363.935,547.484 389.777,547.484C434.374,547.484 470.581,583.691 470.581,628.288C470.581,672.885 434.374,709.093 389.777,709.093C364.381,709.093 341.262,695.572 326.444,677.226" style="fill:rgb(128,13,46);stroke:black;stroke-width:6.61px;"/>
        </g>
        <g transform="matrix(3.86124e-17,-0.630588,0.630588,3.86124e-17,187.089,1423.26)">
            <path d="M826.511,890.44L826.511,670.806" style="fill:none;stroke:black;stroke-width:6.61px;"/>
        </g>
        <g transform="matrix(3.86124e-17,-0.630588,0.630588,3.86124e-17,187.089,1423.26)">
            <path d="M826.511,569.026L826.511,359.138L609.884,359.138" style="fill:none;stroke:black;stroke-width:6.61px;"/>
        </g>
        <g transform="matrix(3.86124e-17,-0.630588,0.630588,3.86124e-17,187.089,1423.26)">
            <path d="M509.138,359.138L295.208,359.138" style="fill:none;stroke:black;stroke-width:6.61px;"/>
        </g>
        <g transform="matrix(-0.637576,-7.80805e-17,7.72248e-17,-0.630588,622.166,1466.88)">
            <path d="M326.115,578.541C340.911,559.64 363.935,547.484 389.777,547.484C434.374,547.484 470.581,583.691 470.581,628.288C470.581,672.885 434.374,709.093 389.777,709.093C364.381,709.093 341.705,697.351 326.887,679.005" style="fill:rgb(128,13,46);stroke:black;stroke-width:6.57px;"/>
        </g>
        <g transform="matrix(3.86124e-17,-0.630588,0.630588,3.86124e-17,181.764,1107.69)">
            <path d="M326.115,578.541C340.911,559.64 363.935,547.484 389.777,547.484C434.374,547.484 470.581,583.691 470.581,628.288C470.581,672.885 434.374,709.093 389.777,709.093C364.381,709.093 341.705,697.351 326.887,679.005" style="fill:rgb(128,13,46);stroke:black;stroke-width:6.61px;"/>
        </g>
        <g transform="matrix(3.86124e-17,-0.630588,0.630588,3.86124e-17,522.145,1758.08)">
            <path d="M295.208,669.887L295.208,890.44L509.017,890.44" style="fill:none;stroke:black;stroke-width:6.61px;"/>
        </g>
        <g transform="matrix(4.27559e-17,-0.698257,0.630588,3.86124e-17,522.145,1799.36)">
            <path d="M610.016,890.44L829.553,890.911" style="fill:none;stroke:black;stroke-width:6.26px;"/>
        </g>
        <g transform="matrix(3.86124e-17,-0.630588,0.630588,3.86124e-17,522.145,1758.08)">
            <path d="M295.208,359.138L295.208,568.65" style="fill:none;stroke:black;stroke-width:6.61px;"/>
        </g>
        <g transform="matrix(3.86124e-17,-0.630588,0.630588,3.86124e-17,516.287,1779.71)">
            <path d="M326.115,578.541C340.911,559.64 363.935,547.484 389.777,547.484C434.374,547.484 470.581,583.691 470.581,628.288C470.581,672.885 434.374,709.093 389.777,709.093C364.381,709.093 341.705,697.351 326.887,679.005" style="fill:rgb(235,235,235);"/>
        </g>
        <g transform="matrix(-0.630588,-7.72248e-17,7.72248e-17,-0.630588,1289.03,1801.8)">
            <path d="M326.115,578.541C340.911,559.64 363.935,547.484 389.777,547.484C434.374,547.484 470.581,583.691 470.581,628.288C470.581,672.885 434.374,709.093 389.777,709.093C364.381,709.093 341.705,697.351 326.887,679.005" style="fill:none;stroke:black;stroke-width:6.61px;"/>
        </g>
        <g transform="matrix(-3.86124e-17,0.630588,0.630588,3.86124e-17,857.056,1054.07)">
            <path d="M295.208,669.887L295.208,890.44" style="fill:none;stroke:black;stroke-width:6.61px;"/>
        </g>
        <g transform="matrix(-3.86124e-17,0.630588,0.630588,3.86124e-17,857.056,1054.07)">
            <path d="M826.511,359.138L609.884,359.138" style="fill:none;stroke:black;stroke-width:6.61px;"/>
        </g>
        <g transform="matrix(-3.86124e-17,0.630588,0.630588,3.86124e-17,857.056,1054.07)">
            <path d="M509.138,359.138L295.208,359.138L295.208,568.65" style="fill:none;stroke:black;stroke-width:6.61px;"/>
        </g>
        <g transform="matrix(-3.86124e-17,0.630588,0.630588,3.86124e-17,851.198,1033.44)">
            <path d="M327.483,578.081C342.279,559.18 363.935,547.484 389.777,547.484C434.374,547.484 470.581,583.691 470.581,628.288C470.581,672.885 434.374,709.093 389.777,709.093C364.381,709.093 342.506,697.252 327.688,678.906" style="fill:rgb(9,85,89);stroke:black;stroke-width:6.61px;"/>
        </g>
        <g transform="matrix(-0.630588,0,0,0.630588,1288.84,1010.45)">
            <path d="M326.115,578.541C340.911,559.64 363.935,547.484 389.777,547.484C434.374,547.484 470.581,583.691 470.581,628.288C470.581,672.885 434.374,709.093 389.777,709.093C364.381,709.093 341.705,697.351 326.887,679.005" style="fill:none;stroke:black;stroke-width:6.61px;"/>
        </g>
        <g transform="matrix(-0.717453,8.78627e-17,-7.78573e-17,-0.635753,1965.22,2140.5)">
            <path d="M295.208,669.887L295.208,890.44" style="fill:none;stroke:black;stroke-width:6.15px;"/>
        </g>
        <g transform="matrix(-0.630588,7.72248e-17,-7.72248e-17,-0.630588,1939.28,2137.04)">
            <path d="M826.511,359.138L609.884,359.138" style="fill:none;stroke:black;stroke-width:6.61px;"/>
        </g>
        <g transform="matrix(-0.630588,7.72248e-17,-7.72248e-17,-0.630588,1939.28,2137.04)">
            <path d="M509.138,359.138L295.208,359.138L295.208,568.65" style="fill:none;stroke:black;stroke-width:6.61px;"/>
        </g>
        <g transform="matrix(-0.630588,7.72248e-17,-7.72248e-17,-0.630588,1958.91,2142.9)">
            <path d="M326.115,578.541C340.911,559.64 363.935,547.484 389.777,547.484C434.374,547.484 470.581,583.691 470.581,628.288C470.581,672.885 434.374,709.093 389.777,709.093C364.381,709.093 341.705,697.351 326.887,679.005" style="fill:rgb(128,13,46);stroke:black;stroke-width:6.61px;"/>
        </g>
        <g transform="matrix(3.86124e-17,0.630588,-0.630588,3.86124e-17,1982.91,1705.25)">
            <path d="M326.115,578.541C340.911,559.64 363.935,547.484 389.777,547.484C434.374,547.484 470.581,583.691 470.581,628.288C470.581,672.885 434.374,709.093 389.777,709.093C364.381,709.093 341.705,697.351 326.887,679.005" style="fill:rgb(128,13,46);stroke:black;stroke-width:6.61px;"/>
        </g>
        <g transform="matrix(0.630588,0,0,0.630588,1232.24,1013.76)">
            <path d="M826.511,890.44L826.511,670.806" style="fill:none;stroke:black;stroke-width:6.61px;"/>
        </g>
        <g transform="matrix(0.630588,0,0,0.630588,1232.24,1013.76)">
            <path d="M826.511,569.026L826.511,359.138L609.884,359.138" style="fill:none;stroke:black;stroke-width:6.61px;"/>
        </g>
        <g transform="matrix(0.630588,0,0,0.630588,1232.24,1013.76)">
            <path d="M509.138,359.138L295.208,359.138" style="fill:none;stroke:black;stroke-width:6.61px;"/>
        </g>
        <g transform="matrix(3.86124e-17,-0.630588,0.630588,3.86124e-17,1188.61,1446.54)">
            <path d="M326.115,578.541C340.911,559.64 363.935,547.484 389.777,547.484C434.374,547.484 470.581,583.691 470.581,628.288C470.581,672.885 434.374,709.093 389.777,709.093C364.381,709.093 341.705,697.351 326.887,679.005" style="fill:rgb(128,13,46);stroke:black;stroke-width:6.61px;"/>
        </g>
        <g transform="matrix(0.630588,0,0,0.630588,1545.8,1008.43)">
            <path d="M327.295,577.661C342.091,558.759 363.935,547.484 389.777,547.484C434.374,547.484 470.581,583.691 470.581,628.288C470.581,672.885 434.374,709.093 389.777,709.093C364.381,709.093 342.352,698.16 327.534,679.815" style="fill:rgb(128,13,46);stroke:black;stroke-width:6.61px;"/>
        </g>
        <g transform="matrix(0.630588,0,0,0.630588,897.41,1348.81)">
            <path d="M295.208,669.887L295.208,890.44L509.017,890.44" style="fill:none;stroke:black;stroke-width:6.61px;"/>
        </g>
        <g transform="matrix(0.698257,0,0,0.630588,856.13,1348.81)">
            <path d="M610.016,890.44L829.553,890.911" style="fill:none;stroke:black;stroke-width:6.26px;"/>
        </g>
        <g transform="matrix(0.630588,0,0,0.630588,897.41,1348.81)">
            <path d="M295.208,359.138L295.208,568.65" style="fill:none;stroke:black;stroke-width:6.61px;"/>
        </g>
        <g transform="matrix(3.86124e-17,-0.630588,0.630588,3.86124e-17,853.695,2118.7)">
            <path d="M326.115,578.541C340.911,559.64 363.935,547.484 389.777,547.484C434.374,547.484 470.581,583.691 470.581,628.288C470.581,672.885 434.374,709.093 389.777,709.093C364.381,709.093 341.705,697.351 326.887,679.005" style="fill:rgb(235,235,235);"/>
        </g>
        <g transform="matrix(1,0,0,1,155.26,94.0295)">
            <text x="2728.52px" y="1037.86px" style="font-family:'HelveticaNeue-Light', 'Helvetica Neue';font-weight:300;font-size:66.667px;fill:white;">Adobe</text>
            <text x="2670.59px" y="1106.46px" style="font-family:'HelveticaNeue-Light', 'Helvetica Neue';font-weight:300;font-size:66.667px;fill:white;">InDesign</text>
        </g>
        <g transform="matrix(1,0,0,1,-186.425,955.726)">
            <text x="2684.92px" y="1037.86px" style="font-family:'HelveticaNeue-Light', 'Helvetica Neue';font-weight:300;font-size:66.667px;fill:white;">HTML &amp;</text>
            <text x="2787.79px" y="1106.46px" style="font-family:'HelveticaNeue-Light', 'Helvetica Neue';font-weight:300;font-size:66.667px;fill:white;">CSS</text>
        </g>
        <g transform="matrix(1,0,0,1,-361.62,207.024)">
            <text x="2642.55px" y="1037.86px" style="font-family:'HelveticaNeue-Bold', 'Helvetica Neue';font-weight:700;font-size:83.333px;fill:white;">Design</text>
        </g>
        <g transform="matrix(1,0,0,1,-1335.51,517.454)">
            <text x="2664.93px" y="1037.86px" style="font-family:'HelveticaNeue-Bold', 'Helvetica Neue';font-weight:700;font-size:83.333px;fill:white;">Data</text>
            <text x="2597.89px" y="1123.61px" style="font-family:'HelveticaNeue-Bold', 'Helvetica Neue';font-weight:700;font-size:83.333px;fill:white;">analysis</text>
        </g>
        <g transform="matrix(1,0,0,1,-2019.44,211.944)">
            <text x="2584.76px" y="1037.86px" style="font-family:'HelveticaNeue-Bold', 'Helvetica Neue';font-weight:700;font-size:83.333px;fill:white;">Mapping</text>
        </g>
        <g transform="matrix(1,0,0,1,-752.468,921.327)">
            <text x="2746.05px" y="1037.86px" style="font-family:'HelveticaNeue-Bold', 'Helvetica Neue';font-weight:700;font-size:83.333px;fill:white;">W<tspan x="2819.97px 2867.8px " y="1037.86px 1037.86px ">eb</tspan></text>
        </g>
        <g transform="matrix(1,0,0,1,-516.801,-233.498)">
            <text x="2728.52px" y="1037.86px" style="font-family:'HelveticaNeue-Light', 'Helvetica Neue';font-weight:300;font-size:66.667px;fill:white;">Adobe</text>
            <text x="2658.25px" y="1106.46px" style="font-family:'HelveticaNeue-Light', 'Helvetica Neue';font-weight:300;font-size:66.667px;fill:white;">Illustrator</text>
        </g>
        <g transform="matrix(1,0,0,1,-870.198,325.925)">
            <text x="2780.45px" y="1037.86px" style="font-family:'HelveticaNeue-Light', 'Helvetica Neue';font-weight:300;font-size:66.667px;fill:white;">d3.js</text>
        </g>
        <g transform="matrix(1,0,0,1,-171.875,-410.709)">
            <text x="2764.18px" y="1037.86px" style="font-family:'HelveticaNeue-Light', 'Helvetica Neue';font-weight:300;font-size:54.167px;fill:white;">Adobe</text>
            <text x="2662.89px" y="1093.6px" style="font-family:'HelveticaNeue-Light', 'Helvetica Neue';font-weight:300;font-size:54.167px;fill:white;">Photoshop</text>
        </g>
        <g transform="matrix(3.86124e-17,-0.630588,0.630588,3.86124e-17,853.695,2116.7)">
            <path d="M326.961,577.819C341.757,558.918 363.935,547.484 389.777,547.484C434.374,547.484 470.581,583.691 470.581,628.288C470.581,672.885 434.374,709.093 389.777,709.093C364.381,709.093 341.705,697.351 326.887,679.005" style="fill:rgb(235,235,235);stroke:black;stroke-width:6.61px;"/>
        </g>
        <g transform="matrix(0.630588,0,0,0.630588,874.779,1342.95)">
            <path d="M326.115,578.541C340.911,559.64 363.935,547.484 389.777,547.484C434.374,547.484 470.581,583.691 470.581,628.288C470.581,672.885 434.374,709.093 389.777,709.093C364.381,709.093 341.705,697.351 326.887,679.005" style="fill:rgb(235,235,235);"/>
        </g>
        <g transform="matrix(0.630588,0,0,0.630588,876.779,1342.95)">
            <path d="M327.252,576.674C342.048,557.773 363.935,547.484 389.777,547.484C434.374,547.484 470.581,583.691 470.581,628.288C470.581,672.885 434.374,709.093 389.777,709.093C364.381,709.093 341.705,697.351 326.887,679.005" style="fill:rgb(235,235,235);stroke:black;stroke-width:6.61px;"/>
        </g>
        <g transform="matrix(3.86124e-17,-0.630588,0.630588,3.86124e-17,516.287,1778.71)">
            <path d="M326.115,578.541C340.911,559.64 363.935,547.484 389.777,547.484C434.374,547.484 470.581,583.691 470.581,628.288C470.581,672.885 434.374,709.093 389.777,709.093C364.381,709.093 341.705,697.351 326.887,679.005" style="fill:rgb(235,235,235);stroke:black;stroke-width:6.61px;"/>
        </g>
        <g transform="matrix(3.86124e-17,0.630588,-0.630588,3.86124e-17,1316.23,696.58)">
            <path d="M326.115,578.541C340.911,559.64 363.935,547.484 389.777,547.484C434.374,547.484 470.581,583.691 470.581,628.288C470.581,672.885 434.374,709.093 389.777,709.093C364.381,709.093 341.705,697.351 326.887,679.005" style="fill:rgb(235,235,235);stroke:black;stroke-width:6.61px;"/>
        </g>
        <g transform="matrix(3.86124e-17,-0.630588,0.630588,3.86124e-17,2194.71,1111.97)">
            <path d="M326.115,578.541C340.911,559.64 363.935,547.484 389.777,547.484C434.374,547.484 470.581,583.691 470.581,628.288C470.581,672.885 434.374,709.093 389.777,709.093C364.381,709.093 341.705,697.351 326.887,679.005" style="fill:rgb(128,13,46);stroke:black;stroke-width:6.61px;"/>
        </g>
        <g transform="matrix(0.630588,0,0,0.630588,1883.88,1008.38)">
            <path d="M326.115,578.541C340.911,559.64 363.935,547.484 389.777,547.484C434.374,547.484 470.581,583.691 470.581,628.288C470.581,672.885 434.374,709.093 389.777,709.093C364.381,709.093 341.705,697.351 326.887,679.005" style="fill:rgb(9,85,89);stroke:black;stroke-width:6.61px;"/>
        </g>
        <g transform="matrix(-0.630588,-7.72248e-17,7.72248e-17,-0.630588,2628.67,2477.3)">
            <path d="M326.115,578.541C340.911,559.64 363.935,547.484 389.777,547.484C434.374,547.484 470.581,583.691 470.581,628.288C470.581,672.885 434.374,709.093 389.777,709.093C364.381,709.093 341.705,697.351 326.887,679.005" style="fill:rgb(9,85,89);stroke:black;stroke-width:6.61px;"/>
        </g>
        <g transform="matrix(0.630588,7.72248e-17,7.72248e-17,-0.630588,1547.76,2479.97)">
            <path d="M326.115,578.541C340.911,559.64 363.935,547.484 389.777,547.484C434.374,547.484 470.581,583.691 470.581,628.288C470.581,672.885 434.374,709.093 389.777,709.093C364.381,709.093 341.705,697.351 326.887,679.005" style="fill:rgb(235,235,235);stroke:black;stroke-width:6.61px;"/>
        </g>
        <g transform="matrix(3.86124e-17,0.630588,-0.630588,3.86124e-17,974.712,1385.52)">
            <path d="M295.208,675.103L295.208,890.44L826.511,890.44L826.511,359.138L609.884,359.138" style="fill:none;stroke:black;stroke-width:6.61px;"/>
        </g>
        <g transform="matrix(3.86124e-17,0.630588,-0.630588,3.86124e-17,974.492,1385.45)">
            <path d="M509.138,359.138L295.208,359.138L297.14,569.575" style="fill:none;stroke:black;stroke-width:6.61px;"/>
        </g>
        <g transform="matrix(0.630588,0,0,0.630588,542.704,1341.82)">
            <path d="M326.115,578.541C340.911,559.64 363.935,547.484 389.777,547.484C434.374,547.484 470.581,583.691 470.581,628.288C470.581,672.885 434.374,709.093 389.777,709.093C364.381,709.093 341.705,697.351 326.887,679.005" style="fill:rgb(9,85,89);stroke:black;stroke-width:6.61px;"/>
        </g>
        <g transform="matrix(1,0,0,1,-1179.95,34.9175)">
            <text x="2717.45px" y="1037.86px" style="font-family:'HelveticaNeue-Light', 'Helvetica Neue';font-weight:300;font-size:66.667px;fill:white;">Python</text>
        </g>
        <g transform="matrix(1,0,0,1,-1630.85,57.1594)">
            <text x="2868.7px" y="1037.86px" style="font-family:'HelveticaNeue-Light', 'Helvetica Neue';font-weight:300;font-size:75px;fill:white;">R</text>
        </g>
    </g>
</svg>
